<?xml version="1.0" encoding="UTF-8" standalone="no"?>
<svg
   xmlns:dc="http://purl.org/dc/elements/1.1/"
   xmlns:cc="http://creativecommons.org/ns#"
   xmlns:rdf="http://www.w3.org/1999/02/22-rdf-syntax-ns#"
   xmlns:svg="http://www.w3.org/2000/svg"
   xmlns="http://www.w3.org/2000/svg"
   xmlns:sodipodi="http://sodipodi.sourceforge.net/DTD/sodipodi-0.dtd"
   xmlns:inkscape="http://www.inkscape.org/namespaces/inkscape"
   version="1.1"
   preserveAspectRatio="none"
   x="0px"
   y="0px"
   width="64"
   height="64"
   viewBox="0 0 64 64"
   id="svg2"
   inkscape:version="0.92.4 5da689c313, 2019-01-14"
   sodipodi:docname="wall_flat.svg">
  <metadata
     id="metadata4079">
    <rdf:RDF>
      <cc:Work
         rdf:about="">
        <dc:format>image/svg+xml</dc:format>
        <dc:type
           rdf:resource="http://purl.org/dc/dcmitype/StillImage" />
        <dc:title></dc:title>
      </cc:Work>
    </rdf:RDF>
  </metadata>
  <sodipodi:namedview
     pagecolor="#ffffff"
     bordercolor="#666666"
     borderopacity="1"
     objecttolerance="10"
     gridtolerance="10"
     guidetolerance="10"
     inkscape:pageopacity="0"
     inkscape:pageshadow="2"
     inkscape:window-width="1848"
     inkscape:window-height="1056"
     id="namedview4077"
     showgrid="false"
     inkscape:zoom="6.693095"
     inkscape:cx="56.539515"
     inkscape:cy="44.304621"
     inkscape:window-x="72"
     inkscape:window-y="0"
     inkscape:window-maximized="1"
     inkscape:current-layer="svg2"
     fit-margin-top="0"
     fit-margin-left="0"
     fit-margin-right="0"
     fit-margin-bottom="0" />
  <defs
     id="defs4">
    <g
       id="Layer0_246_FILL">
      <path
         d="m 1230.6,454.6 -8,8 q -0.6,0.55 -0.6,1.4 l 0,32 q 0,0.85 0.6,1.45 l 8,8 q 0.55,0.55 1.4,0.55 l 32,0 q 0.85,0 1.45,-0.55 l 8,-8 q 0.55,-0.6 0.55,-1.45 l 0,-32 q 0,-0.85 -0.55,-1.4 l -8,-8 q -0.6,-0.6 -1.45,-0.6 l -32,0 q -0.85,0 -1.4,0.6 m -6.6,9.4 8,-8 32,0 8,8 0,32 -8,8 -32,0 -8,-8 0,-32 z"
         id="path2349"
         inkscape:connector-curvature="0"
         style="fill:#758c8e;stroke:none" />
      <path
         d="m 1224,496 8,8 0,-8 -8,0 m 40,8 8,-8 -8,0 0,8 m -28,-36 0,24 24,0 0,-24 -24,0 m 36,-4 -8,-8 0,8 8,0 m -40,-8 -8,8 8,0 0,-8 z"
         id="path2351"
         inkscape:connector-curvature="0"
         style="fill:#a3c3c6;stroke:none" />
      <path
         d="m 1264,504 0,-8 -32,0 0,8 32,0 m 8,-40 -8,0 0,32 8,0 0,-32 m -40,-8 0,8 32,0 0,-8 -32,0 m 0,8 -8,0 0,32 8,0 0,-32 z"
         id="path2353"
         inkscape:connector-curvature="0"
         style="fill:#94b1b4;stroke:none" />
      <path
         d="m 1264,464 -32,0 0,32 32,0 0,-32 m -28,28 0,-24 24,0 0,24 -24,0 z"
         id="path2355"
         inkscape:connector-curvature="0"
         style="fill:#89a4a6;stroke:none" />
    </g>
  </defs>
  <rect
     style="opacity:1;fill:#a3c3c6;fill-opacity:1;stroke:#758c8e;stroke-width:2.03856421;stroke-linecap:round;stroke-linejoin:bevel;stroke-miterlimit:4;stroke-dasharray:none;stroke-opacity:1;paint-order:normal"
     id="rect1618"
     width="61.031342"
     height="7.4467912"
     x="1.4843292"
     y="28.276604" />
</svg>
